<mxfile host="app.diagrams.net" modified="2020-10-30T22:56:03.905Z" agent="5.0 (Macintosh; Intel Mac OS X 10_15_5) AppleWebKit/537.36 (KHTML, like Gecko) Chrome/86.0.4240.111 Safari/537.36" etag="6phSXeXBnudZDaBk4soY" version="13.8.8" type="github">
  <diagram id="btiq2qWRPWNTnVcBCHTb" name="Page-1">
    <mxGraphModel dx="913" dy="738" grid="1" gridSize="10" guides="1" tooltips="1" connect="1" arrows="1" fold="1" page="1" pageScale="1" pageWidth="827" pageHeight="1169" math="0" shadow="0">
      <root>
        <mxCell id="0" />
        <mxCell id="1" parent="0" />
        <mxCell id="OEgAcIDcYBDxofp6DdBq-2" value="Login" style="html=1;" vertex="1" parent="1">
          <mxGeometry x="120" y="160" width="110" height="50" as="geometry" />
        </mxCell>
        <mxCell id="OEgAcIDcYBDxofp6DdBq-3" value="Register" style="html=1;" vertex="1" parent="1">
          <mxGeometry x="120" y="350" width="110" height="50" as="geometry" />
        </mxCell>
        <mxCell id="OEgAcIDcYBDxofp6DdBq-4" value="New user" style="html=1;verticalAlign=bottom;startArrow=oval;startFill=1;endArrow=block;startSize=8;exitX=0.5;exitY=1;exitDx=0;exitDy=0;entryX=0.5;entryY=0;entryDx=0;entryDy=0;" edge="1" parent="1" source="OEgAcIDcYBDxofp6DdBq-2" target="OEgAcIDcYBDxofp6DdBq-3">
          <mxGeometry x="0.028" width="60" relative="1" as="geometry">
            <mxPoint x="380" y="380" as="sourcePoint" />
            <mxPoint x="440" y="380" as="targetPoint" />
            <Array as="points">
              <mxPoint x="110" y="230" />
              <mxPoint x="110" y="270" />
              <mxPoint x="110" y="320" />
            </Array>
            <mxPoint as="offset" />
          </mxGeometry>
        </mxCell>
        <mxCell id="OEgAcIDcYBDxofp6DdBq-5" value="Register successfully" style="html=1;verticalAlign=bottom;startArrow=oval;startFill=1;endArrow=block;startSize=8;exitX=0.5;exitY=0;exitDx=0;exitDy=0;entryX=0.5;entryY=1;entryDx=0;entryDy=0;" edge="1" parent="1" source="OEgAcIDcYBDxofp6DdBq-3" target="OEgAcIDcYBDxofp6DdBq-2">
          <mxGeometry width="60" relative="1" as="geometry">
            <mxPoint x="380" y="380" as="sourcePoint" />
            <mxPoint x="440" y="380" as="targetPoint" />
            <Array as="points">
              <mxPoint x="240" y="320" />
              <mxPoint x="240" y="280" />
              <mxPoint x="240" y="240" />
            </Array>
            <mxPoint as="offset" />
          </mxGeometry>
        </mxCell>
        <mxCell id="OEgAcIDcYBDxofp6DdBq-6" value="User&amp;nbsp; verification success" style="html=1;verticalAlign=bottom;startArrow=oval;startFill=1;endArrow=block;startSize=8;exitX=1;exitY=0.5;exitDx=0;exitDy=0;" edge="1" parent="1" source="OEgAcIDcYBDxofp6DdBq-2">
          <mxGeometry width="60" relative="1" as="geometry">
            <mxPoint x="380" y="380" as="sourcePoint" />
            <mxPoint x="450" y="185" as="targetPoint" />
            <mxPoint as="offset" />
          </mxGeometry>
        </mxCell>
        <mxCell id="OEgAcIDcYBDxofp6DdBq-19" style="edgeStyle=orthogonalEdgeStyle;curved=1;rounded=0;orthogonalLoop=1;jettySize=auto;html=1;exitX=1;exitY=0.5;exitDx=0;exitDy=0;" edge="1" parent="1" source="OEgAcIDcYBDxofp6DdBq-7" target="OEgAcIDcYBDxofp6DdBq-20">
          <mxGeometry relative="1" as="geometry">
            <mxPoint x="660" y="185" as="targetPoint" />
            <Array as="points">
              <mxPoint x="560" y="230" />
              <mxPoint x="680" y="230" />
            </Array>
          </mxGeometry>
        </mxCell>
        <mxCell id="OEgAcIDcYBDxofp6DdBq-22" value="Invited/Create" style="edgeLabel;html=1;align=center;verticalAlign=middle;resizable=0;points=[];" vertex="1" connectable="0" parent="OEgAcIDcYBDxofp6DdBq-19">
          <mxGeometry x="-0.0667" y="1" relative="1" as="geometry">
            <mxPoint x="4" y="1" as="offset" />
          </mxGeometry>
        </mxCell>
        <mxCell id="OEgAcIDcYBDxofp6DdBq-26" style="edgeStyle=orthogonalEdgeStyle;curved=1;rounded=0;orthogonalLoop=1;jettySize=auto;html=1;exitX=0.5;exitY=1;exitDx=0;exitDy=0;entryX=0.5;entryY=0;entryDx=0;entryDy=0;" edge="1" parent="1" source="OEgAcIDcYBDxofp6DdBq-7" target="OEgAcIDcYBDxofp6DdBq-17">
          <mxGeometry relative="1" as="geometry">
            <Array as="points">
              <mxPoint x="440" y="210" />
              <mxPoint x="440" y="360" />
            </Array>
          </mxGeometry>
        </mxCell>
        <mxCell id="OEgAcIDcYBDxofp6DdBq-29" value="Create/Invited/Join" style="edgeLabel;html=1;align=center;verticalAlign=middle;resizable=0;points=[];" vertex="1" connectable="0" parent="OEgAcIDcYBDxofp6DdBq-26">
          <mxGeometry x="-0.0286" relative="1" as="geometry">
            <mxPoint as="offset" />
          </mxGeometry>
        </mxCell>
        <mxCell id="OEgAcIDcYBDxofp6DdBq-7" value="Flockr main menu" style="html=1;" vertex="1" parent="1">
          <mxGeometry x="450" y="160" width="110" height="50" as="geometry" />
        </mxCell>
        <mxCell id="OEgAcIDcYBDxofp6DdBq-12" style="edgeStyle=orthogonalEdgeStyle;curved=1;rounded=0;orthogonalLoop=1;jettySize=auto;html=1;exitX=1;exitY=0.5;exitDx=0;exitDy=0;entryX=0;entryY=0.5;entryDx=0;entryDy=0;" edge="1" parent="1" source="OEgAcIDcYBDxofp6DdBq-3" target="OEgAcIDcYBDxofp6DdBq-3">
          <mxGeometry relative="1" as="geometry">
            <Array as="points">
              <mxPoint x="250" y="375" />
              <mxPoint x="250" y="480" />
              <mxPoint x="100" y="480" />
              <mxPoint x="100" y="375" />
            </Array>
          </mxGeometry>
        </mxCell>
        <mxCell id="OEgAcIDcYBDxofp6DdBq-13" value="Invalid registering" style="edgeLabel;html=1;align=center;verticalAlign=middle;resizable=0;points=[];" vertex="1" connectable="0" parent="OEgAcIDcYBDxofp6DdBq-12">
          <mxGeometry y="-3" relative="1" as="geometry">
            <mxPoint as="offset" />
          </mxGeometry>
        </mxCell>
        <mxCell id="OEgAcIDcYBDxofp6DdBq-14" style="edgeStyle=orthogonalEdgeStyle;curved=1;rounded=0;orthogonalLoop=1;jettySize=auto;html=1;exitX=1;exitY=0.5;exitDx=0;exitDy=0;entryX=0;entryY=0.5;entryDx=0;entryDy=0;" edge="1" parent="1" source="OEgAcIDcYBDxofp6DdBq-2" target="OEgAcIDcYBDxofp6DdBq-2">
          <mxGeometry relative="1" as="geometry">
            <Array as="points">
              <mxPoint x="240" y="185" />
              <mxPoint x="240" y="80" />
              <mxPoint x="110" y="80" />
              <mxPoint x="110" y="185" />
            </Array>
          </mxGeometry>
        </mxCell>
        <mxCell id="OEgAcIDcYBDxofp6DdBq-15" value="User verification failed" style="edgeLabel;html=1;align=center;verticalAlign=middle;resizable=0;points=[];" vertex="1" connectable="0" parent="OEgAcIDcYBDxofp6DdBq-14">
          <mxGeometry x="0.0611" y="-1" relative="1" as="geometry">
            <mxPoint x="11" as="offset" />
          </mxGeometry>
        </mxCell>
        <mxCell id="OEgAcIDcYBDxofp6DdBq-28" style="edgeStyle=orthogonalEdgeStyle;curved=1;rounded=0;orthogonalLoop=1;jettySize=auto;html=1;entryX=0.5;entryY=1;entryDx=0;entryDy=0;exitX=0.564;exitY=-0.1;exitDx=0;exitDy=0;exitPerimeter=0;" edge="1" parent="1" source="OEgAcIDcYBDxofp6DdBq-17" target="OEgAcIDcYBDxofp6DdBq-7">
          <mxGeometry relative="1" as="geometry">
            <Array as="points">
              <mxPoint x="560" y="356" />
              <mxPoint x="560" y="210" />
            </Array>
          </mxGeometry>
        </mxCell>
        <mxCell id="OEgAcIDcYBDxofp6DdBq-30" value="Delete" style="edgeLabel;html=1;align=center;verticalAlign=middle;resizable=0;points=[];" vertex="1" connectable="0" parent="OEgAcIDcYBDxofp6DdBq-28">
          <mxGeometry x="0.0119" y="-1" relative="1" as="geometry">
            <mxPoint x="-1" y="2.04" as="offset" />
          </mxGeometry>
        </mxCell>
        <mxCell id="OEgAcIDcYBDxofp6DdBq-41" value="Send messages" style="edgeStyle=orthogonalEdgeStyle;curved=1;rounded=0;orthogonalLoop=1;jettySize=auto;html=1;entryX=0.5;entryY=0;entryDx=0;entryDy=0;exitX=0.5;exitY=1;exitDx=0;exitDy=0;" edge="1" parent="1" source="OEgAcIDcYBDxofp6DdBq-17" target="OEgAcIDcYBDxofp6DdBq-32">
          <mxGeometry relative="1" as="geometry">
            <Array as="points">
              <mxPoint x="570" y="400" />
              <mxPoint x="570" y="550" />
            </Array>
          </mxGeometry>
        </mxCell>
        <mxCell id="OEgAcIDcYBDxofp6DdBq-17" value="Public &lt;br&gt;channels" style="html=1;" vertex="1" parent="1">
          <mxGeometry x="450" y="360" width="110" height="40" as="geometry" />
        </mxCell>
        <mxCell id="OEgAcIDcYBDxofp6DdBq-33" style="edgeStyle=orthogonalEdgeStyle;curved=1;rounded=0;orthogonalLoop=1;jettySize=auto;html=1;entryX=1;entryY=0.5;entryDx=0;entryDy=0;" edge="1" parent="1" source="OEgAcIDcYBDxofp6DdBq-20" target="OEgAcIDcYBDxofp6DdBq-32">
          <mxGeometry relative="1" as="geometry">
            <Array as="points">
              <mxPoint x="760" y="580" />
              <mxPoint x="570" y="580" />
            </Array>
          </mxGeometry>
        </mxCell>
        <mxCell id="OEgAcIDcYBDxofp6DdBq-34" value="Send messages" style="edgeLabel;html=1;align=center;verticalAlign=middle;resizable=0;points=[];" vertex="1" connectable="0" parent="OEgAcIDcYBDxofp6DdBq-33">
          <mxGeometry x="-0.3724" y="-17" relative="1" as="geometry">
            <mxPoint as="offset" />
          </mxGeometry>
        </mxCell>
        <mxCell id="OEgAcIDcYBDxofp6DdBq-35" value="Delete" style="edgeStyle=orthogonalEdgeStyle;curved=1;rounded=0;orthogonalLoop=1;jettySize=auto;html=1;exitX=0;exitY=0;exitDx=0;exitDy=0;entryX=1;entryY=0;entryDx=0;entryDy=0;" edge="1" parent="1" source="OEgAcIDcYBDxofp6DdBq-20" target="OEgAcIDcYBDxofp6DdBq-7">
          <mxGeometry relative="1" as="geometry">
            <Array as="points">
              <mxPoint x="680" y="120" />
              <mxPoint x="560" y="120" />
            </Array>
          </mxGeometry>
        </mxCell>
        <mxCell id="OEgAcIDcYBDxofp6DdBq-20" value="Private" style="html=1;" vertex="1" parent="1">
          <mxGeometry x="680" y="160" width="110" height="50" as="geometry" />
        </mxCell>
        <mxCell id="OEgAcIDcYBDxofp6DdBq-37" value="Receive messages" style="edgeStyle=orthogonalEdgeStyle;curved=1;rounded=0;orthogonalLoop=1;jettySize=auto;html=1;exitX=1;exitY=0.5;exitDx=0;exitDy=0;entryX=0.5;entryY=1;entryDx=0;entryDy=0;" edge="1" parent="1" source="OEgAcIDcYBDxofp6DdBq-32" target="OEgAcIDcYBDxofp6DdBq-20">
          <mxGeometry relative="1" as="geometry">
            <Array as="points">
              <mxPoint x="650" y="575" />
              <mxPoint x="650" y="210" />
            </Array>
          </mxGeometry>
        </mxCell>
        <mxCell id="OEgAcIDcYBDxofp6DdBq-42" value="Receive messages" style="edgeStyle=orthogonalEdgeStyle;curved=1;rounded=0;orthogonalLoop=1;jettySize=auto;html=1;exitX=0.5;exitY=0;exitDx=0;exitDy=0;entryX=0.5;entryY=1;entryDx=0;entryDy=0;" edge="1" parent="1" source="OEgAcIDcYBDxofp6DdBq-32" target="OEgAcIDcYBDxofp6DdBq-17">
          <mxGeometry relative="1" as="geometry">
            <Array as="points">
              <mxPoint x="440" y="550" />
              <mxPoint x="440" y="400" />
            </Array>
          </mxGeometry>
        </mxCell>
        <mxCell id="OEgAcIDcYBDxofp6DdBq-32" value="Other users" style="html=1;" vertex="1" parent="1">
          <mxGeometry x="450" y="550" width="110" height="50" as="geometry" />
        </mxCell>
      </root>
    </mxGraphModel>
  </diagram>
</mxfile>
